<svg width="21" height="20" viewBox="0 0 21 20" fill="none" xmlns="http://www.w3.org/2000/svg">
<path fill-rule="evenodd" clip-rule="evenodd" d="M5.33329 10.8334C8.72413 10.8334 8.87496 11.9834 8.87496 14.375C8.87496 15.5734 8.87496 16.4259 8.37163 17.05C7.79246 17.7692 6.73829 17.9167 5.33329 17.9167C3.92829 17.9167 2.87413 17.7692 2.29496 17.05C1.79163 16.4259 1.79163 15.5742 1.79163 14.3959L2.41663 14.375H1.79163C1.79163 11.9834 1.94246 10.8334 5.33329 10.8334ZM14.5 10.8334C17.8908 10.8334 18.0416 11.9834 18.0416 14.375C18.0416 15.5734 18.0416 16.4259 17.5383 17.05C16.9591 17.7692 15.905 17.9167 14.5 17.9167C13.095 17.9167 12.0408 17.7692 11.4616 17.05C10.9583 16.4259 10.9583 15.5742 10.9583 14.3959L11.5833 14.375H10.9583C10.9583 11.9834 11.1091 10.8334 14.5 10.8334ZM5.50509 12.0837L5.33329 12.0834C3.15915 12.0834 3.04765 12.2394 3.04193 14.0642L3.04228 14.7752C3.04623 15.501 3.07389 16.0253 3.26746 16.2667C3.48829 16.54 4.14413 16.6667 5.33329 16.6667C6.52246 16.6667 7.17829 16.5392 7.39913 16.2659C7.62496 15.985 7.62496 15.3184 7.62496 14.395C7.62496 12.3115 7.62496 12.0935 5.50509 12.0837ZM14.6718 12.0837L14.5 12.0834C12.3258 12.0834 12.2143 12.2394 12.2086 14.0642L12.209 14.7752C12.2129 15.501 12.2406 16.0253 12.4341 16.2667C12.655 16.54 13.3108 16.6667 14.5 16.6667C15.6891 16.6667 16.345 16.5392 16.5658 16.2659C16.7916 15.985 16.7916 15.3184 16.7916 14.395C16.7916 12.3115 16.7916 12.0935 14.6718 12.0837ZM5.33329 1.66669C8.72413 1.66669 8.87496 2.81669 8.87496 5.20835C8.87496 6.40669 8.87496 7.25919 8.37163 7.88335C7.79246 8.60252 6.73829 8.75002 5.33329 8.75002C3.92829 8.75002 2.87413 8.60252 2.29496 7.88335C1.79163 7.25919 1.79163 6.40752 1.79163 5.22919L2.41663 5.20835H1.79163C1.79163 2.81669 1.94246 1.66669 5.33329 1.66669ZM14.5 1.66669C17.8908 1.66669 18.0416 2.81669 18.0416 5.20835C18.0416 6.40669 18.0416 7.25919 17.5383 7.88335C16.9591 8.60252 15.905 8.75002 14.5 8.75002C13.095 8.75002 12.0408 8.60252 11.4616 7.88335C10.9583 7.25919 10.9583 6.40752 10.9583 5.22919L11.5833 5.20835H10.9583C10.9583 2.81669 11.1091 1.66669 14.5 1.66669ZM5.50509 2.91706L5.33329 2.91669C3.15915 2.91669 3.04765 3.0727 3.04193 4.89756L3.04228 5.6085C3.04623 6.33431 3.07389 6.85859 3.26746 7.10002C3.48829 7.37335 4.14413 7.50002 5.33329 7.50002C6.52246 7.50002 7.17829 7.37252 7.39913 7.09919C7.62496 6.81835 7.62496 6.15169 7.62496 5.22835C7.62496 3.14485 7.62496 2.92687 5.50509 2.91706ZM14.6718 2.91706L14.5 2.91669C12.3258 2.91669 12.2143 3.0727 12.2086 4.89756L12.209 5.6085C12.2129 6.33431 12.2406 6.85859 12.4341 7.10002C12.655 7.37335 13.3108 7.50002 14.5 7.50002C15.6891 7.50002 16.345 7.37252 16.5658 7.09919C16.7916 6.81835 16.7916 6.15169 16.7916 5.22835C16.7916 3.14485 16.7916 2.92687 14.6718 2.91706Z" fill="white" stroke="white" stroke-width="0.5"/>
</svg>
