<svg width="21" height="20" viewBox="0 0 21 20" fill="none" xmlns="http://www.w3.org/2000/svg">
<path fill-rule="evenodd" clip-rule="evenodd" d="M15.0182 10.7391C15.4729 10.8101 15.784 11.2363 15.713 11.691C15.5529 12.7168 15.0709 13.6652 14.3368 14.3993C13.6027 15.1335 12.6543 15.6154 11.6285 15.7756C11.1738 15.8466 10.7476 15.5355 10.6766 15.0807C10.6056 14.626 10.9167 14.1998 11.3714 14.1288C12.0482 14.0232 12.6739 13.7052 13.1583 13.2208C13.6427 12.7365 13.9606 12.1107 14.0663 11.4339C14.1373 10.9792 14.5635 10.6681 15.0182 10.7391Z" fill="#E6E6EB"/>
<path fill-rule="evenodd" clip-rule="evenodd" d="M11.7774 0.864713C12.1055 0.558878 12.6169 0.567662 12.9343 0.884585C15.1996 3.1461 18.2708 6.49373 18.2708 10.9375C18.2708 12.899 17.4916 14.7801 16.1046 16.1671C14.7176 17.5541 12.8365 18.3333 10.875 18.3333C8.91346 18.3333 7.0323 17.5541 5.64532 16.1671C4.25833 14.7801 3.47913 12.899 3.47913 10.9375C3.47913 8.74949 4.57697 6.50166 5.80833 4.64538C6.0572 4.27021 6.55905 4.16053 6.94174 4.39769L6.94182 4.39774C6.94966 4.4026 6.95742 4.40759 6.9651 4.41271L9.28638 5.96023L11.5931 1.11611C11.6382 1.02149 11.7007 0.936226 11.7773 0.864776L11.7774 0.864713ZM12.5846 2.91063L10.3773 7.54577C10.2734 7.7641 10.0797 7.9265 9.84658 7.99081C9.61347 8.05512 9.36392 8.015 9.16271 7.88086L6.75008 6.27245C5.80307 7.84274 5.14579 9.47368 5.14579 10.9375C5.14579 12.457 5.7494 13.9142 6.82383 14.9886C7.89825 16.063 9.35549 16.6667 10.875 16.6667C12.3944 16.6667 13.8517 16.063 14.9261 14.9886C16.0005 13.9142 16.6041 12.457 16.6041 10.9375C16.6041 7.69572 14.6237 5.05796 12.5846 2.91063Z" fill="#E6E6EB"/>
</svg>
