<svg width="45" height="41" viewBox="0 0 45 41" fill="none" xmlns="http://www.w3.org/2000/svg">
<path d="M43.4468 25.5014V1H5.71191L1.22339 9.40938V39.7766H38.7495L43.4468 34.0146V25.5014Z" stroke="#FFD363" stroke-width="1.43617"/>
<path d="M40.2872 15.9362V4.15959H27.3616" stroke="#FFD363" stroke-width="0.861702" stroke-miterlimit="10"/>
<path d="M4.09573 25.4149V37.1915H17.0213" stroke="#FFD363" stroke-width="0.861702" stroke-miterlimit="10"/>
<path d="M22.6233 11.6081C23.2458 11.6057 23.8682 11.612 24.4906 11.6269L24.656 11.6329C24.8471 11.6397 25.0356 11.6482 25.2634 11.6585C26.171 11.7011 26.7903 11.8444 27.3337 12.0551C27.8967 12.2718 28.3709 12.5652 28.8452 13.0395C29.2789 13.4657 29.6145 13.9812 29.8288 14.5502C30.0395 15.0936 30.1828 15.7137 30.2254 16.6213C30.2357 16.8482 30.2442 17.0376 30.251 17.2287L30.2561 17.3942C30.2713 18.0162 30.2778 18.6384 30.2757 19.2606L30.2766 19.897V21.0144C30.2787 21.6369 30.2722 22.2594 30.257 22.8817L30.2519 23.0472C30.245 23.2382 30.2365 23.4268 30.2263 23.6545C30.1836 24.5621 30.0386 25.1814 29.8288 25.7248C29.6152 26.2944 29.2795 26.8103 28.8452 27.2364C28.4187 27.67 27.9029 28.0056 27.3337 28.2199C26.7903 28.4306 26.171 28.5739 25.2634 28.6165C25.0356 28.6268 24.8471 28.6353 24.656 28.6421L24.4906 28.6472C23.8682 28.6624 23.2458 28.669 22.6233 28.6669L21.9869 28.6677H20.8703C20.2478 28.6698 19.6254 28.6633 19.0031 28.6481L18.8376 28.643C18.6351 28.6356 18.4326 28.6271 18.2302 28.6174C17.3226 28.5747 16.7033 28.4297 16.1591 28.2199C15.5899 28.0061 15.0742 27.6704 14.6484 27.2364C14.2142 26.8101 13.8783 26.2942 13.664 25.7248C13.4533 25.1814 13.31 24.5621 13.2673 23.6545C13.2578 23.4521 13.2493 23.2497 13.2418 23.0472L13.2375 22.8817C13.2218 22.2594 13.2146 21.6369 13.2162 21.0144V19.2606C13.2138 18.6384 13.22 18.0162 13.2349 17.3942L13.2409 17.2287C13.2477 17.0376 13.2563 16.8482 13.2665 16.6213C13.3091 15.7129 13.4524 15.0944 13.6631 14.5502C13.8776 13.9809 14.2142 13.4655 14.6492 13.0404C15.0748 12.606 15.5901 12.2697 16.1591 12.0551C16.7033 11.8444 17.3218 11.7011 18.2302 11.6585L18.8376 11.6329L19.0031 11.6286C19.6251 11.6129 20.2473 11.6058 20.8695 11.6073L22.6233 11.6081ZM21.7464 15.8732C21.1813 15.8653 20.6202 15.9697 20.0958 16.1804C19.5713 16.3911 19.094 16.704 18.6916 17.1008C18.2891 17.4976 17.9695 17.9704 17.7514 18.4918C17.5333 19.0132 17.421 19.5728 17.421 20.1379C17.421 20.7031 17.5333 21.2626 17.7514 21.784C17.9695 22.3054 18.2891 22.7783 18.6916 23.1751C19.094 23.5719 19.5713 23.8847 20.0958 24.0955C20.6202 24.3062 21.1813 24.4106 21.7464 24.4026C22.8776 24.4026 23.9624 23.9533 24.7623 23.1534C25.5621 22.3535 26.0115 21.2687 26.0115 20.1375C26.0115 19.0063 25.5621 17.9215 24.7623 17.1216C23.9624 16.3218 22.8776 15.8732 21.7464 15.8732ZM21.7464 17.5793C22.0863 17.573 22.4241 17.6346 22.74 17.7603C23.0559 17.8861 23.3435 18.0735 23.5862 18.3116C23.8288 18.5498 24.0215 18.8339 24.1531 19.1474C24.2847 19.4609 24.3525 19.7975 24.3526 20.1375C24.3526 20.4775 24.285 20.8141 24.1535 21.1276C24.022 21.4412 23.8293 21.7254 23.5868 21.9636C23.3442 22.2018 23.0566 22.3894 22.7408 22.5152C22.4249 22.6411 22.0872 22.7027 21.7472 22.6966C21.0685 22.6966 20.4176 22.427 19.9377 21.947C19.4578 21.4671 19.1882 20.8162 19.1882 20.1375C19.1882 19.4588 19.4578 18.8079 19.9377 18.328C20.4176 17.8481 21.0685 17.5784 21.7472 17.5784L21.7464 17.5793ZM26.2247 14.5937C25.9496 14.6047 25.6893 14.7218 25.4985 14.9204C25.3077 15.119 25.2011 15.3837 25.2011 15.6591C25.2011 15.9345 25.3077 16.1993 25.4985 16.3979C25.6893 16.5965 25.9496 16.7135 26.2247 16.7246C26.5075 16.7246 26.7788 16.6122 26.9787 16.4123C27.1787 16.2123 27.291 15.9411 27.291 15.6583C27.291 15.3755 27.1787 15.1043 26.9787 14.9043C26.7788 14.7043 26.5075 14.592 26.2247 14.592V14.5937Z" fill="#FFD363"/>
</svg>
