<svg width="44" height="41" viewBox="0 0 44 41" fill="none" xmlns="http://www.w3.org/2000/svg">
<path d="M43.2234 25.5014V1H5.48852L1 9.40938V39.7766H38.5261L43.2234 34.0146V25.5014Z" stroke="#FFD363" stroke-width="1.43617"/>
<path d="M40.0638 15.9362V4.15959H27.1383" stroke="#FFD363" stroke-width="0.861702" stroke-miterlimit="10"/>
<path d="M3.87234 25.4149V37.1915H16.7979" stroke="#FFD363" stroke-width="0.861702" stroke-miterlimit="10"/>
<path d="M30.522 20.1374C30.522 15.4287 26.8666 11.6072 22.3626 11.6072C17.8587 11.6072 14.2033 15.4287 14.2033 20.1374C14.2033 24.266 17.0101 27.7037 20.7307 28.497V22.6965H19.0989V20.1374H20.7307V18.0048C20.7307 16.3585 22.0118 15.0193 23.5865 15.0193H25.6264V17.5783H23.9945C23.5457 17.5783 23.1786 17.9622 23.1786 18.4314V20.1374H25.6264V22.6965H23.1786V28.625C27.299 28.1985 30.522 24.5646 30.522 20.1374Z" fill="#FFD363"/>
</svg>
