<svg width="267" height="42" viewBox="0 0 267 42" fill="none" xmlns="http://www.w3.org/2000/svg">
<path fill-rule="evenodd" clip-rule="evenodd" d="M209.017 0.000117038C219.891 0.000117988 230.32 4.31975 238.009 12.0087L266.293 40.293C266.684 40.6835 266.684 41.3167 266.293 41.7072C265.903 42.0978 265.269 42.0978 264.879 41.7072L237.009 13.8372C229.43 6.25804 219.15 2.00013 208.432 2.00012L58.5686 2.00011C47.8501 2.00011 37.5706 6.25801 29.9915 13.8371L2.12146 41.7071C1.73096 42.0976 1.09778 42.0976 0.707275 41.7071C0.316742 41.3166 0.316742 40.6834 0.707276 40.2929L28.9916 12.0087C36.6805 4.31972 47.109 0.000110512 57.9828 0.000111463L209.017 0.000117038Z" fill="#FFD363"/>
</svg>
