<svg width="15" height="18" viewBox="0 0 15 18" fill="none" xmlns="http://www.w3.org/2000/svg">
<path d="M14.6834 5.14165C14.6834 5.14165 14.6834 5.14165 14.6834 5.07498L14.6334 4.94998C14.616 4.92346 14.5965 4.89838 14.575 4.87498C14.5527 4.8397 14.5277 4.80626 14.5 4.77498L14.425 4.71665L14.2917 4.64998L8.04171 0.791647C7.90926 0.70887 7.75622 0.664978 7.60004 0.664978C7.44386 0.664978 7.29082 0.70887 7.15837 0.791647L0.958373 4.64998L0.883373 4.71665L0.808373 4.77498C0.780749 4.80626 0.755669 4.8397 0.733373 4.87498C0.711949 4.89838 0.692442 4.92346 0.67504 4.94998L0.625039 5.07498C0.625039 5.07498 0.625039 5.07498 0.625039 5.14165C0.616849 5.21364 0.616849 5.28632 0.625039 5.35831V12.6416C0.624756 12.7833 0.660569 12.9226 0.729099 13.0466C0.797628 13.1705 0.896612 13.2749 1.01671 13.35L7.26671 17.2083C7.30517 17.2321 7.34747 17.249 7.39171 17.2583C7.39171 17.2583 7.43337 17.2583 7.45837 17.2583C7.59936 17.303 7.75072 17.303 7.89171 17.2583C7.89171 17.2583 7.93337 17.2583 7.95837 17.2583C8.00261 17.249 8.0449 17.2321 8.08337 17.2083L14.2917 13.35C14.4118 13.2749 14.5108 13.1705 14.5793 13.0466C14.6478 12.9226 14.6837 12.7833 14.6834 12.6416V5.35831C14.6916 5.28632 14.6916 5.21364 14.6834 5.14165ZM6.79171 15.0083L2.20837 12.175V6.85831L6.79171 9.68331V15.0083ZM7.62504 8.24165L2.95837 5.35831L7.62504 2.48331L12.2917 5.35831L7.62504 8.24165ZM13.0417 12.175L8.45837 15.0083V9.68331L13.0417 6.85831V12.175Z" fill="white"/>
</svg>
