<svg width="21" height="20" viewBox="0 0 21 20" fill="none" xmlns="http://www.w3.org/2000/svg">
<path d="M17.6834 6.14165C17.6834 6.14165 17.6834 6.14165 17.6834 6.07498L17.6334 5.94998C17.616 5.92346 17.5965 5.89838 17.575 5.87498C17.5527 5.8397 17.5277 5.80626 17.5 5.77498L17.425 5.71665L17.2917 5.64998L11.0417 1.79165C10.9093 1.70887 10.7562 1.66498 10.6 1.66498C10.4439 1.66498 10.2908 1.70887 10.1584 1.79165L3.95837 5.64998L3.88337 5.71665L3.80837 5.77498C3.78075 5.80626 3.75567 5.8397 3.73337 5.87498C3.71195 5.89838 3.69244 5.92346 3.67504 5.94998L3.62504 6.07498C3.62504 6.07498 3.62504 6.07498 3.62504 6.14165C3.61685 6.21364 3.61685 6.28632 3.62504 6.35831V13.6416C3.62476 13.7833 3.66057 13.9226 3.7291 14.0466C3.79763 14.1705 3.89661 14.2749 4.01671 14.35L10.2667 18.2083C10.3052 18.2321 10.3475 18.249 10.3917 18.2583C10.3917 18.2583 10.4334 18.2583 10.4584 18.2583C10.5994 18.303 10.7507 18.303 10.8917 18.2583C10.8917 18.2583 10.9334 18.2583 10.9584 18.2583C11.0026 18.249 11.0449 18.2321 11.0834 18.2083L17.2917 14.35C17.4118 14.2749 17.5108 14.1705 17.5793 14.0466C17.6478 13.9226 17.6837 13.7833 17.6834 13.6416V6.35831C17.6916 6.28632 17.6916 6.21364 17.6834 6.14165ZM9.79171 16.0083L5.20837 13.175V7.85831L9.79171 10.6833V16.0083ZM10.625 9.24165L5.95837 6.35831L10.625 3.48331L15.2917 6.35831L10.625 9.24165ZM16.0417 13.175L11.4584 16.0083V10.6833L16.0417 7.85831V13.175Z" fill="white"/>
</svg>
