<svg width="290" height="60" viewBox="0 0 290 60" fill="none" xmlns="http://www.w3.org/2000/svg">
<g clip-path="url(#clip0_2095_2363)">
<path d="M261.486 1.00415H22.0101L1.41748 20.9665V40.1937" stroke="#FFD363" stroke-width="5" stroke-miterlimit="10"/>
<path d="M1.41748 43.9653V58.6337H23.0325" stroke="#FFD363" stroke-width="5" stroke-miterlimit="10"/>
<path d="M25.6205 5.77179L7.93359 23.3764V53.8661H264.392L282.079 36.2615V5.77179H25.6205Z" fill="url(#paint0_linear_2095_2363)"/>
<path d="M28.397 58.6337H267.518L288.595 37.7838V19.4442" stroke="#FFD363" stroke-width="5" stroke-miterlimit="10"/>
<path d="M288.594 15.6726V1.00415H266.974" stroke="#FFD363" stroke-width="5" stroke-miterlimit="10"/>
</g>
<path d="M43.7744 39.288C42.2864 39.288 40.9984 38.928 39.9104 38.208C38.8384 37.472 38.0064 36.448 37.4144 35.136C36.8224 33.824 36.5264 32.32 36.5264 30.624C36.5264 28.864 36.8304 27.336 37.4384 26.04C38.0464 24.744 38.9024 23.744 40.0064 23.04C41.1104 22.32 42.4064 21.96 43.8944 21.96C45.0784 21.96 46.1504 22.192 47.1104 22.656C48.0864 23.12 48.8784 23.784 49.4864 24.648C50.1104 25.496 50.4624 26.528 50.5424 27.744H47.2544C47.1424 26.752 46.7904 25.96 46.1984 25.368C45.6064 24.776 44.8304 24.48 43.8704 24.48C43.0544 24.48 42.3264 24.728 41.6864 25.224C41.0464 25.704 40.5504 26.408 40.1984 27.336C39.8464 28.248 39.6704 29.344 39.6704 30.624C39.6704 31.92 39.8464 33.024 40.1984 33.936C40.5664 34.848 41.0544 35.552 41.6624 36.048C42.2864 36.528 42.9904 36.768 43.7744 36.768C44.4464 36.768 45.0304 36.632 45.5264 36.36C46.0384 36.072 46.4544 35.672 46.7744 35.16C47.0944 34.648 47.2784 34.048 47.3264 33.36H50.6384C50.5264 34.56 50.1744 35.608 49.5824 36.504C49.0064 37.384 48.2224 38.072 47.2304 38.568C46.2544 39.048 45.1024 39.288 43.7744 39.288ZM59.1438 39.288C57.7518 39.288 56.5518 39.008 55.5438 38.448C54.5518 37.888 53.7838 37.096 53.2398 36.072C52.7118 35.032 52.4478 33.8 52.4478 32.376C52.4478 30.936 52.7118 29.704 53.2398 28.68C53.7838 27.656 54.5518 26.864 55.5438 26.304C56.5518 25.744 57.7518 25.464 59.1438 25.464C61.2238 25.464 62.8558 26.08 64.0398 27.312C65.2238 28.528 65.8158 30.216 65.8158 32.376C65.8158 33.8 65.5438 35.032 64.9998 36.072C64.4718 37.096 63.7038 37.888 62.6958 38.448C61.7038 39.008 60.5198 39.288 59.1438 39.288ZM59.1438 36.936C60.3118 36.936 61.2318 36.528 61.9038 35.712C62.5918 34.896 62.9358 33.784 62.9358 32.376C62.9358 30.952 62.5918 29.84 61.9038 29.04C61.2318 28.224 60.3118 27.816 59.1438 27.816C57.9438 27.816 57.0078 28.224 56.3358 29.04C55.6638 29.84 55.3278 30.952 55.3278 32.376C55.3278 33.784 55.6638 34.896 56.3358 35.712C57.0078 36.528 57.9438 36.936 59.1438 36.936ZM77.9931 39V30.72C77.9931 29.856 77.7531 29.168 77.2731 28.656C76.8091 28.144 76.2011 27.888 75.4491 27.888C74.5851 27.888 73.8011 28.2 73.0971 28.824C72.4091 29.432 71.8171 30.416 71.3211 31.776L70.8891 28.92C71.4171 27.752 72.1371 26.888 73.0491 26.328C73.9611 25.752 74.9371 25.464 75.9771 25.464C76.9851 25.464 77.8491 25.68 78.5691 26.112C79.3051 26.528 79.8651 27.12 80.2491 27.888C80.6491 28.64 80.8491 29.528 80.8491 30.552V39H77.9931ZM68.7531 39V25.752H71.4891L71.6091 28.536V39H68.7531ZM93.6025 39V30.72C93.6025 29.856 93.3625 29.168 92.8825 28.656C92.4185 28.144 91.8105 27.888 91.0585 27.888C90.1945 27.888 89.4105 28.2 88.7065 28.824C88.0185 29.432 87.4265 30.416 86.9305 31.776L86.4985 28.92C87.0265 27.752 87.7465 26.888 88.6585 26.328C89.5705 25.752 90.5465 25.464 91.5865 25.464C92.5945 25.464 93.4585 25.68 94.1785 26.112C94.9145 26.528 95.4745 27.12 95.8585 27.888C96.2585 28.64 96.4585 29.528 96.4585 30.552V39H93.6025ZM84.3625 39V25.752H87.0985L87.2185 28.536V39H84.3625ZM106.116 39.288C104.724 39.288 103.524 39.016 102.516 38.472C101.508 37.912 100.732 37.112 100.188 36.072C99.6599 35.032 99.3959 33.792 99.3959 32.352C99.3959 30.912 99.6679 29.68 100.212 28.656C100.756 27.616 101.54 26.824 102.564 26.28C103.588 25.736 104.812 25.464 106.236 25.464C108.444 25.464 110.068 26.08 111.108 27.312C112.164 28.544 112.62 30.232 112.476 32.376H101.676L101.7 30.288L109.548 30.312C109.484 29.544 109.148 28.928 108.54 28.464C107.932 28 107.164 27.768 106.236 27.768C104.924 27.768 103.932 28.176 103.26 28.992C102.588 29.808 102.252 30.968 102.252 32.472C102.252 33.336 102.404 34.112 102.708 34.8C103.012 35.472 103.444 36 104.004 36.384C104.58 36.752 105.284 36.936 106.116 36.936C107.06 36.936 107.844 36.712 108.468 36.264C109.108 35.816 109.5 35.216 109.644 34.464H112.524C112.332 35.952 111.66 37.128 110.508 37.992C109.372 38.856 107.908 39.288 106.116 39.288ZM121.893 39.288C120.517 39.288 119.325 39.008 118.317 38.448C117.309 37.888 116.533 37.088 115.989 36.048C115.461 35.008 115.197 33.784 115.197 32.376C115.197 30.936 115.477 29.704 116.037 28.68C116.597 27.64 117.381 26.848 118.389 26.304C119.413 25.744 120.605 25.464 121.965 25.464C123.085 25.464 124.085 25.672 124.965 26.088C125.845 26.488 126.557 27.056 127.101 27.792C127.645 28.528 127.949 29.408 128.013 30.432H125.157C125.029 29.584 124.677 28.944 124.101 28.512C123.541 28.064 122.829 27.84 121.965 27.84C121.181 27.84 120.493 28.024 119.901 28.392C119.325 28.744 118.877 29.256 118.557 29.928C118.237 30.6 118.077 31.416 118.077 32.376C118.077 33.816 118.429 34.944 119.133 35.76C119.853 36.56 120.773 36.96 121.893 36.96C122.437 36.96 122.933 36.856 123.381 36.648C123.845 36.424 124.237 36.12 124.557 35.736C124.893 35.352 125.117 34.904 125.229 34.392H128.109C127.965 35.384 127.605 36.248 127.029 36.984C126.469 37.72 125.741 38.288 124.845 38.688C123.965 39.088 122.981 39.288 121.893 39.288ZM138.271 39C137.423 39 136.695 38.824 136.087 38.472C135.479 38.12 135.015 37.624 134.695 36.984C134.375 36.328 134.215 35.568 134.215 34.704V23.352L137.095 21.912V34.704C137.095 35.104 137.151 35.456 137.263 35.76C137.375 36.064 137.591 36.296 137.911 36.456C138.247 36.6 138.727 36.672 139.351 36.672H143.119V39H138.271ZM131.263 28.08V25.752H140.935V28.08H131.263ZM162.625 39L161.017 22.248H163.849L164.689 32.256L164.905 36.384L165.481 32.256L167.113 22.248H169.777L171.481 32.256L172.129 36.504L172.273 32.256L173.065 22.248H175.873L174.217 39H170.233L168.961 30.72L168.457 26.568L167.929 30.72L166.609 39H162.625ZM187.187 39L187.067 36.192V30.24C187.067 29.408 186.787 28.752 186.227 28.272C185.667 27.792 184.891 27.552 183.899 27.552C182.955 27.552 182.179 27.768 181.571 28.2C180.979 28.632 180.643 29.224 180.563 29.976H177.779C177.859 29.032 178.163 28.224 178.691 27.552C179.235 26.88 179.955 26.368 180.851 26.016C181.763 25.648 182.811 25.464 183.995 25.464C185.211 25.464 186.259 25.656 187.139 26.04C188.035 26.424 188.723 26.984 189.203 27.72C189.683 28.456 189.923 29.352 189.923 30.408V39H187.187ZM182.579 39.288C181.715 39.288 180.947 39.128 180.275 38.808C179.619 38.488 179.107 38.032 178.739 37.44C178.371 36.848 178.187 36.16 178.187 35.376C178.187 34.016 178.715 32.96 179.771 32.208C180.827 31.44 182.291 31.056 184.163 31.056H187.403V33.12L184.067 33.144C183.107 33.144 182.355 33.328 181.811 33.696C181.267 34.048 180.995 34.56 180.995 35.232C180.995 35.76 181.187 36.184 181.571 36.504C181.971 36.824 182.515 36.984 183.203 36.984C184.083 36.984 184.867 36.752 185.555 36.288C186.259 35.808 186.827 35.152 187.259 34.32L187.571 36.336C187.155 37.312 186.523 38.048 185.675 38.544C184.827 39.04 183.795 39.288 182.579 39.288ZM198.188 39V21.312H201.068V39H198.188ZM193.508 39V36.672H205.796V39H193.508ZM195.236 23.64V21.312H199.628V23.64H195.236ZM213.798 39V21.312H216.678V39H213.798ZM209.118 39V36.672H221.406V39H209.118ZM210.846 23.64V21.312H215.238V23.64H210.846ZM230.991 39.288C229.599 39.288 228.399 39.016 227.391 38.472C226.383 37.912 225.607 37.112 225.063 36.072C224.535 35.032 224.271 33.792 224.271 32.352C224.271 30.912 224.543 29.68 225.087 28.656C225.631 27.616 226.415 26.824 227.439 26.28C228.463 25.736 229.687 25.464 231.111 25.464C233.319 25.464 234.943 26.08 235.983 27.312C237.039 28.544 237.495 30.232 237.351 32.376H226.551L226.575 30.288L234.423 30.312C234.359 29.544 234.023 28.928 233.415 28.464C232.807 28 232.039 27.768 231.111 27.768C229.799 27.768 228.807 28.176 228.135 28.992C227.463 29.808 227.127 30.968 227.127 32.472C227.127 33.336 227.279 34.112 227.583 34.8C227.887 35.472 228.319 36 228.879 36.384C229.455 36.752 230.159 36.936 230.991 36.936C231.935 36.936 232.719 36.712 233.343 36.264C233.983 35.816 234.375 35.216 234.519 34.464H237.399C237.207 35.952 236.535 37.128 235.383 37.992C234.247 38.856 232.783 39.288 230.991 39.288ZM247.536 39C246.688 39 245.96 38.824 245.352 38.472C244.744 38.12 244.28 37.624 243.96 36.984C243.64 36.328 243.48 35.568 243.48 34.704V23.352L246.36 21.912V34.704C246.36 35.104 246.416 35.456 246.528 35.76C246.64 36.064 246.856 36.296 247.176 36.456C247.512 36.6 247.992 36.672 248.616 36.672H252.384V39H247.536ZM240.528 28.08V25.752H250.2V28.08H240.528Z" fill="#1E1E1E"/>
<defs>
<linearGradient id="paint0_linear_2095_2363" x1="7.93359" y1="29.8189" x2="282.079" y2="29.8189" gradientUnits="userSpaceOnUse">
<stop stop-color="#FFD363"/>
<stop offset="1" stop-color="#F1A012"/>
</linearGradient>
<clipPath id="clip0_2095_2363">
<rect width="289.868" height="59.6379" fill="white" transform="translate(0.0722656)"/>
</clipPath>
</defs>
</svg>
