<svg width="45" height="41" viewBox="0 0 45 41" fill="none" xmlns="http://www.w3.org/2000/svg">
<path d="M43.6702 25.5014V1H5.9353L1.44678 9.40938V39.7766H38.9729L43.6702 34.0146V25.5014Z" stroke="#FFD363" stroke-width="1.43617"/>
<path d="M40.5106 15.9362V4.15959H27.585" stroke="#FFD363" stroke-width="0.861702" stroke-miterlimit="10"/>
<path d="M4.31909 25.4149V37.1915H17.2446" stroke="#FFD363" stroke-width="0.861702" stroke-miterlimit="10"/>
<path d="M28.0191 13.239C28.4519 13.239 28.8669 13.4109 29.173 13.7169C29.479 14.023 29.6509 14.438 29.6509 14.8708V26.2939C29.6509 26.7267 29.479 27.1418 29.173 27.4478C28.8669 27.7538 28.4519 27.9258 28.0191 27.9258H16.596C16.1632 27.9258 15.7481 27.7538 15.4421 27.4478C15.136 27.1418 14.9641 26.7267 14.9641 26.2939V14.8708C14.9641 14.438 15.136 14.023 15.4421 13.7169C15.7481 13.4109 16.1632 13.239 16.596 13.239H28.0191ZM27.6111 25.8859V21.5615C27.6111 20.856 27.3308 20.1795 26.832 19.6806C26.3332 19.1818 25.6566 18.9015 24.9511 18.9015C24.2576 18.9015 23.4498 19.3258 23.0582 19.9622V19.0566H20.7817V25.8859H23.0582V21.8634C23.0582 21.2351 23.5641 20.7211 24.1923 20.7211C24.4953 20.7211 24.7858 20.8414 25.0001 21.0556C25.2143 21.2699 25.3346 21.5604 25.3346 21.8634V25.8859H27.6111ZM18.1299 17.7755C18.4935 17.7755 18.8421 17.6311 19.0992 17.3741C19.3563 17.117 19.5007 16.7683 19.5007 16.4048C19.5007 15.646 18.8888 15.0258 18.1299 15.0258C17.7642 15.0258 17.4135 15.1711 17.1549 15.4297C16.8963 15.6883 16.751 16.0391 16.751 16.4048C16.751 17.1636 17.3711 17.7755 18.1299 17.7755ZM19.2641 25.8859V19.0566H17.0039V25.8859H19.2641Z" fill="#FFD363"/>
</svg>
