<svg width="21" height="20" viewBox="0 0 21 20" fill="none" xmlns="http://www.w3.org/2000/svg">
<path d="M8.275 2.89065C6.86367 2.21682 4.89102 1.88674 2.25 1.87502C2.00093 1.87164 1.75674 1.94427 1.55 2.08322C1.38031 2.19792 1.2414 2.35256 1.1455 2.53354C1.04959 2.71452 0.99963 2.91629 1 3.12111V14.2969C1 15.0524 1.5375 15.6223 2.25 15.6223C5.02617 15.6223 7.81094 15.8817 9.47891 17.4582C9.50173 17.4799 9.53041 17.4944 9.56139 17.4999C9.59237 17.5054 9.62428 17.5017 9.65316 17.4892C9.68204 17.4767 9.70662 17.456 9.72383 17.4297C9.74105 17.4033 9.75015 17.3725 9.75 17.341V4.17268C9.75004 4.08384 9.73103 3.99602 9.69423 3.91515C9.65744 3.83429 9.60373 3.76226 9.53672 3.70393C9.15465 3.3773 8.73025 3.10374 8.275 2.89065ZM19.2 2.08205C18.9932 1.94344 18.749 1.87122 18.5 1.87502C15.859 1.88674 13.8863 2.21526 12.475 2.89065C12.0198 3.10335 11.5953 3.37637 11.2129 3.70236C11.146 3.76078 11.0924 3.83284 11.0557 3.91369C11.019 3.99454 11 4.08232 11 4.17111V17.3403C11 17.3705 11.0089 17.4001 11.0256 17.4252C11.0423 17.4504 11.0661 17.4701 11.094 17.4819C11.1219 17.4936 11.1526 17.4968 11.1823 17.4911C11.212 17.4855 11.2393 17.4712 11.2609 17.45C12.2637 16.4539 14.0234 15.6211 18.5016 15.6215C18.8331 15.6215 19.151 15.4898 19.3854 15.2554C19.6199 15.021 19.7516 14.703 19.7516 14.3715V3.12151C19.752 2.91628 19.7019 2.7141 19.6057 2.53282C19.5096 2.35153 19.3702 2.19672 19.2 2.08205Z" fill="#F7FAFF"/>
</svg>
