<svg width="23" height="35" viewBox="0 0 23 35" fill="none" xmlns="http://www.w3.org/2000/svg">
<g clip-path="url(#clip0_2925_1391)">
<path d="M19.8093 0.0476074H2.88891C1.48622 0.0476074 0.349121 1.20811 0.349121 2.63967V31.4555C0.349121 32.8871 1.48622 34.0476 2.88891 34.0476H19.8093C21.212 34.0476 22.3491 32.8871 22.3491 31.4555V2.63967C22.3491 1.20811 21.212 0.0476074 19.8093 0.0476074Z" fill="#C70039"/>
<path d="M18.6649 2.93427H4.03285C3.34835 2.93427 2.79346 3.50058 2.79346 4.19917V17.0654C2.79346 17.764 3.34835 18.3303 4.03285 18.3303H18.6649C19.3494 18.3303 19.9043 17.764 19.9043 17.0654V4.19917C19.9043 3.50058 19.3494 2.93427 18.6649 2.93427Z" fill="#222222"/>
<path d="M18.019 16.4059V4.8587L4.67946 4.8587V16.4059H18.019Z" fill="#D3DE32"/>
<path d="M8.0489 23.6228H7.26298C7.08932 23.6228 6.94871 23.4793 6.94871 23.302V22.4999C6.94871 22.3227 6.8081 22.1792 6.63444 22.1792H5.69162C5.51796 22.1792 5.37735 22.3227 5.37735 22.4999V23.302C5.37735 23.4793 5.23674 23.6228 5.06308 23.6228H4.27716C4.1035 23.6228 3.96289 23.7663 3.96289 23.9435V24.9057C3.96289 25.083 4.1035 25.2265 4.27716 25.2265H5.06308C5.23674 25.2265 5.37735 25.37 5.37735 25.5472V26.3493C5.37735 26.5266 5.51796 26.6701 5.69162 26.6701H6.63444C6.8081 26.6701 6.94871 26.5266 6.94871 26.3493V25.5472C6.94871 25.37 7.08932 25.2265 7.26298 25.2265H8.0489C8.22256 25.2265 8.36317 25.083 8.36317 24.9057V23.9435C8.36317 23.7663 8.22256 23.6228 8.0489 23.6228Z" fill="#222222"/>
<path d="M16.029 26.006C16.1904 25.3169 15.7738 24.6247 15.0985 24.46C14.4233 24.2953 13.7451 24.7205 13.5837 25.4096C13.4223 26.0988 13.8389 26.791 14.5142 26.9557C15.1894 27.1204 15.8676 26.6952 16.029 26.006Z" fill="#222222"/>
<path d="M18.2097 24.0492C18.7006 23.5481 18.7006 22.7358 18.2097 22.2348C17.7187 21.7337 16.9228 21.7337 16.4319 22.2348C15.9409 22.7358 15.9409 23.5481 16.4319 24.0492C16.9228 24.5502 17.7187 24.5502 18.2097 24.0492Z" fill="#222222"/>
<path d="M13.2348 30.519H9.46351C9.11618 30.519 8.83496 30.232 8.83496 29.8775C8.83496 29.523 9.11618 29.236 9.46351 29.236H13.2348C13.5821 29.236 13.8633 29.523 13.8633 29.8775C13.8633 30.232 13.5821 30.519 13.2348 30.519Z" fill="#222222"/>
<path d="M8.99166 13.5192C8.87107 13.5192 8.75049 13.4722 8.6583 13.3781C8.47393 13.1904 8.47393 12.8854 8.6583 12.6977L13.3724 7.88655C13.5568 7.69838 13.8547 7.69838 14.0391 7.88655C14.2235 8.07424 14.2235 8.3793 14.0391 8.56699L9.32502 13.3781C9.23284 13.4722 9.11225 13.5192 8.99166 13.5192Z" fill="white"/>
<path d="M11.7861 13.5996C11.6655 13.5996 11.5449 13.5525 11.4527 13.4584C11.2684 13.2707 11.2684 12.9661 11.4527 12.778L13.451 10.7385C13.6354 10.5504 13.9334 10.5504 14.1178 10.7385C14.3021 10.9262 14.3021 11.2308 14.1178 11.419L12.1195 13.4584C12.0273 13.5525 11.9067 13.5996 11.7861 13.5996Z" fill="white"/>
<path d="M8.91305 10.6672C8.79246 10.6672 8.67187 10.6202 8.57969 10.5261C8.39531 10.3379 8.39531 10.0334 8.57969 9.84567L10.5785 7.80623C10.7628 7.61806 11.0608 7.61806 11.2452 7.80623C11.4296 7.99439 11.4296 8.29898 11.2452 8.48667L9.24641 10.5261C9.15422 10.6202 9.03364 10.6672 8.91305 10.6672Z" fill="white"/>
</g>
<defs>
<clipPath id="clip0_2925_1391">
<rect width="22" height="34" fill="white" transform="translate(0.349121 0.0476074)"/>
</clipPath>
</defs>
</svg>
