<svg width="267" height="42" viewBox="0 0 267 42" fill="none" xmlns="http://www.w3.org/2000/svg">
<path fill-rule="evenodd" clip-rule="evenodd" d="M57.9826 42C47.1087 42 36.6802 37.6804 28.9912 29.9914L0.706956 1.70711C0.316431 1.31658 0.316431 0.683417 0.706956 0.292892C1.09748 -0.0976319 1.73065 -0.0976303 2.12117 0.292894L29.9912 28.163C37.5704 35.7421 47.8499 40 58.5684 40L208.431 40C219.15 40 229.429 35.7421 237.008 28.1629L264.879 0.292894C265.269 -0.0976301 265.902 -0.0976319 266.293 0.292892C266.683 0.683417 266.683 1.31658 266.293 1.70711L238.008 29.9914C230.319 37.6804 219.891 42 209.017 42L57.9826 42Z" fill="#FFD363"/>
</svg>
