<svg width="13" height="17" viewBox="0 0 13 17" fill="none" xmlns="http://www.w3.org/2000/svg">
<path fill-rule="evenodd" clip-rule="evenodd" d="M8.99015 0.243644C9.26464 0.384513 9.41228 0.690452 9.35177 0.992983L8.43167 5.59349L12.023 6.94023C12.2387 7.02113 12.3999 7.20438 12.4525 7.42871C12.5052 7.65304 12.4424 7.88885 12.2852 8.0573L5.03878 15.8213C4.82827 16.0468 4.49363 16.1053 4.21915 15.9644C3.94466 15.8235 3.79702 15.5176 3.85753 15.215L4.77763 10.6145L1.18635 9.2678C0.970592 9.18689 0.809451 9.00364 0.756796 8.77931C0.704141 8.55499 0.76692 8.31918 0.924143 8.15072L8.17052 0.386748C8.38103 0.161201 8.71567 0.102775 8.99015 0.243644ZM2.63751 8.33787L5.81178 9.52822C6.12858 9.64702 6.31254 9.97797 6.24618 10.3098L5.68746 13.1034L10.5718 7.87016L7.39753 6.67981C7.08072 6.56101 6.89676 6.23005 6.96312 5.89827L7.52184 3.10466L2.63751 8.33787Z" fill="white"/>
</svg>
